<svg xmlns="http://www.w3.org/2000/svg" style="display: none;">
  <!-- Trading Icons -->
  <symbol id="icon-buy" viewBox="0 0 24 24">
    <path fill="currentColor" d="M12 2L2 12h3v9h5v-6h4v6h5v-9h3L12 2z"/>
  </symbol>
  
  <symbol id="icon-sell" viewBox="0 0 24 24">
    <path fill="currentColor" d="M12 22L22 12h-3V3h-5v6h-4V3H5v9H2l10 10z"/>
  </symbol>
  
  <symbol id="icon-chart-up" viewBox="0 0 24 24">
    <path fill="currentColor" d="M16 6l2.29 2.29-4.88 4.88-4-4L2 16.59 3.41 18l6-6 4 4 6.3-6.29L22 12V6h-6z"/>
  </symbol>
  
  <symbol id="icon-chart-down" viewBox="0 0 24 24">
    <path fill="currentColor" d="M16 18l2.29-2.29-4.88-4.88-4 4L2 7.41 3.41 6l6 6 4-4 6.3 6.29L22 12v6h-6z"/>
  </symbol>
  
  <symbol id="icon-bitcoin" viewBox="0 0 24 24">
    <path fill="currentColor" d="M17.1 12.6c.3-1.4-.8-2.2-2.2-2.7l.5-1.8-1.1-.3-.4 1.8c-.3-.1-.6-.1-.9-.2l.4-1.8-1.1-.3-.5 1.8c-.2-.1-.5-.1-.7-.2l-1.5-.4-.3 1.2s.8.2.8.2c.4.1.5.4.5.7l-1.2 4.9c-.1.2-.2.4-.5.3 0 0-.8-.2-.8-.2l-.6 1.3 1.4.4c.3.1.5.1.8.2l-.5 1.9 1.1.3.5-1.8c.3.1.6.1.9.2l-.5 1.8 1.1.3.5-1.9c1.9.4 3.3.2 3.9-1.6.5-1.5-.0-2.3-1.1-2.9.8-.2 1.4-.8 1.5-1.9zM14.9 15c-.3 1.3-2.5.6-3.2.4l.6-2.3c.7.2 3 .6 2.6 1.9zm.3-4.4c-.3 1.2-2.1.6-2.7.4l.5-2.1c.6.2 2.6.5 2.2 1.7z"/>
  </symbol>
  
  <symbol id="icon-ethereum" viewBox="0 0 24 24">
    <path fill="currentColor" d="M12 2L6 12.5 12 16l6-3.5L12 2zm0 14.5l-6 3.5L12 22l6-2-6-3.5z"/>
  </symbol>
  
  <symbol id="icon-usdt" viewBox="0 0 24 24">
    <path fill="currentColor" d="M12 2C6.48 2 2 6.48 2 12s4.48 10 10 10 10-4.48 10-10S17.52 2 12 2zm0 18c-4.41 0-8-3.59-8-8s3.59-8 8-8 8 3.59 8 8-3.59 8-8 8zm-1-13h2v2h3v2h-3v4c0 .55.45 1 1 1h2v2h-2c-1.66 0-3-1.34-3-3v-4H8v-2h3V7z"/>
  </symbol>
  
  <!-- UI Icons -->
  <symbol id="icon-close" viewBox="0 0 24 24">
    <path fill="currentColor" d="M19 6.41L17.59 5 12 10.59 6.41 5 5 6.41 10.59 12 5 17.59 6.41 19 12 13.41 17.59 19 19 17.59 13.41 12 19 6.41z"/>
  </symbol>
  
  <symbol id="icon-check" viewBox="0 0 24 24">
    <path fill="currentColor" d="M9 16.17L4.83 12l-1.42 1.41L9 19 21 7l-1.41-1.41L9 16.17z"/>
  </symbol>
  
  <symbol id="icon-alert" viewBox="0 0 24 24">
    <path fill="currentColor" d="M12 2L1 21h22L12 2zm0 3.99L19.53 19H4.47L12 5.99zM11 16h2v2h-2v-2zm0-6h2v4h-2v-4z"/>
  </symbol>
  
  <symbol id="icon-info" viewBox="0 0 24 24">
    <path fill="currentColor" d="M12 2C6.48 2 2 6.48 2 12s4.48 10 10 10 10-4.48 10-10S17.52 2 12 2zm1 15h-2v-6h2v6zm0-8h-2V7h2v2z"/>
  </symbol>
  
  <symbol id="icon-search" viewBox="0 0 24 24">
    <path fill="currentColor" d="M15.5 14h-.79l-.28-.27A6.471 6.471 0 0 0 16 9.5 6.5 6.5 0 1 0 9.5 16c1.61 0 3.09-.59 4.23-1.57l.27.28v.79l5 4.99L20.49 19l-4.99-5zm-6 0C7.01 14 5 11.99 5 9.5S7.01 5 9.5 5 14 7.01 14 9.5 11.99 14 9.5 14z"/>
  </symbol>
  
  <symbol id="icon-settings" viewBox="0 0 24 24">
    <path fill="currentColor" d="M19.14 12.94c.04-.3.06-.61.06-.94 0-.32-.02-.64-.07-.94l2.03-1.58c.18-.14.23-.41.12-.61l-1.92-3.32c-.12-.22-.37-.29-.59-.22l-2.39.96c-.5-.38-1.03-.7-1.62-.94l-.36-2.54c-.04-.24-.24-.41-.48-.41h-3.84c-.24 0-.43.17-.47.41l-.36 2.54c-.59.24-1.13.57-1.62.94l-2.39-.96c-.22-.08-.47 0-.59.22L2.74 8.87c-.12.21-.08.47.12.61l2.03 1.58c-.05.3-.09.63-.09.94s.02.64.07.94l-2.03 1.58c-.18.14-.23.41-.12.61l1.92 3.32c.12.22.37.29.59.22l2.39-.96c.5.38 1.03.7 1.62.94l.36 2.54c.05.24.24.41.48.41h3.84c.24 0 .44-.17.47-.41l.36-2.54c.59-.24 1.13-.56 1.62-.94l2.39.96c.22.08.47 0 .59-.22l1.92-3.32c.12-.22.07-.47-.12-.61l-2.01-1.58zM12 15.6c-1.98 0-3.6-1.62-3.6-3.6s1.62-3.6 3.6-3.6 3.6 1.62 3.6 3.6-1.62 3.6-3.6 3.6z"/>
  </symbol>
  
  <symbol id="icon-menu" viewBox="0 0 24 24">
    <path fill="currentColor" d="M3 18h18v-2H3v2zm0-5h18v-2H3v2zm0-7v2h18V6H3z"/>
  </symbol>
  
  <symbol id="icon-arrow-left" viewBox="0 0 24 24">
    <path fill="currentColor" d="M20 11H7.83l5.59-5.59L12 4l-8 8 8 8 1.41-1.41L7.83 13H20v-2z"/>
  </symbol>
  
  <symbol id="icon-arrow-right" viewBox="0 0 24 24">
    <path fill="currentColor" d="M12 4l-1.41 1.41L16.17 11H4v2h12.17l-5.58 5.59L12 20l8-8-8-8z"/>
  </symbol>
  
  <symbol id="icon-refresh" viewBox="0 0 24 24">
    <path fill="currentColor" d="M17.65 6.35C16.2 4.9 14.21 4 12 4c-4.42 0-7.99 3.58-7.99 8s3.57 8 7.99 8c3.73 0 6.84-2.55 7.73-6h-2.08c-.82 2.33-3.04 4-5.65 4-3.31 0-6-2.69-6-6s2.69-6 6-6c1.66 0 3.14.69 4.22 1.78L13 11h7V4l-2.35 2.35z"/>
  </symbol>
</svg>
